<svg width="675" height="103" viewBox="0 0 675 103" fill="none" xmlns="http://www.w3.org/2000/svg">
<path d="M304.477 27.5354V0.542327H310.201V27.5354H304.477Z" fill="#00E5C7"/>
<path d="M340.942 27.5354H333.667L321.925 7.11519H321.759C321.808 7.96449 321.851 8.81995 321.888 9.68156C321.925 10.5432 321.962 11.4048 321.999 12.2664C322.036 13.1157 322.073 13.9711 322.109 14.8328V27.5354H316.995V0.542327H324.214L335.938 20.7594H336.068C336.043 19.9224 336.012 19.0916 335.975 18.2669C335.938 17.4422 335.901 16.6175 335.864 15.7928C335.84 14.9682 335.815 14.1435 335.791 13.3188V0.542327H340.942V27.5354Z" fill="#00E5C7"/>
<path d="M363.688 20.0394C363.688 21.6395 363.301 23.0304 362.525 24.212C361.75 25.3936 360.617 26.3045 359.128 26.9445C357.651 27.5846 355.854 27.9046 353.737 27.9046C352.801 27.9046 351.884 27.8431 350.986 27.72C350.1 27.5969 349.244 27.4184 348.419 27.1846C347.607 26.9384 346.832 26.6368 346.093 26.2799V20.9625C347.373 21.5287 348.702 22.0395 350.081 22.4949C351.46 22.9504 352.826 23.1781 354.18 23.1781C355.115 23.1781 355.866 23.055 356.432 22.8088C357.011 22.5626 357.429 22.2242 357.688 21.7933C357.946 21.3625 358.076 20.8702 358.076 20.3163C358.076 19.6393 357.848 19.0608 357.392 18.5808C356.937 18.1007 356.309 17.6515 355.509 17.233C354.721 16.8145 353.829 16.3652 352.832 15.8852C352.204 15.5897 351.521 15.2328 350.783 14.8143C350.044 14.3835 349.343 13.8604 348.678 13.2449C348.013 12.6295 347.465 11.8848 347.035 11.0109C346.616 10.1247 346.407 9.06612 346.407 7.83525C346.407 6.22281 346.776 4.84423 347.515 3.69952C348.253 2.5548 349.306 1.68088 350.672 1.07776C352.05 0.46232 353.675 0.154602 355.546 0.154602C356.949 0.154602 358.285 0.32077 359.553 0.653105C360.833 0.973132 362.168 1.44086 363.559 2.0563L361.713 6.50591C360.47 6.00125 359.356 5.61352 358.371 5.34273C357.386 5.05963 356.383 4.91808 355.362 4.91808C354.648 4.91808 354.038 5.03501 353.534 5.26888C353.029 5.49044 352.647 5.81046 352.389 6.22896C352.13 6.63515 352.001 7.10903 352.001 7.65062C352.001 8.29067 352.186 8.83226 352.555 9.27537C352.937 9.70618 353.503 10.1247 354.254 10.5309C355.017 10.937 355.965 11.4109 357.097 11.9525C358.476 12.6049 359.651 13.288 360.623 14.0019C361.608 14.7035 362.365 15.5344 362.894 16.4944C363.424 17.4422 363.688 18.6238 363.688 20.0394Z" fill="#00E5C7"/>
<path d="M378.994 27.5354H373.271V5.3058H365.941V0.542327H386.324V5.3058H378.994V27.5354Z" fill="#00E5C7"/>
<path d="M390.478 27.5354V0.542327H396.202V27.5354H390.478Z" fill="#00E5C7"/>
<path d="M413.409 27.5354H407.686V5.3058H400.356V0.542327H420.739V5.3058H413.409V27.5354Z" fill="#00E5C7"/>
<path d="M446.865 0.542327V18.0084C446.865 19.867 446.452 21.5472 445.628 23.0488C444.815 24.5382 443.578 25.7198 441.916 26.5938C440.267 27.4677 438.187 27.9046 435.676 27.9046C432.106 27.9046 429.386 26.9938 427.515 25.1721C425.644 23.3504 424.709 20.9379 424.709 17.9346V0.542327H430.414V17.0668C430.414 19.2947 430.869 20.8579 431.78 21.7564C432.691 22.655 434.039 23.1042 435.824 23.1042C437.079 23.1042 438.095 22.8888 438.87 22.458C439.658 22.0272 440.236 21.3625 440.606 20.464C440.975 19.5655 441.159 18.4208 441.159 17.0299V0.542327H446.865Z" fill="#00E5C7"/>
<path d="M463.888 27.5354H458.164V5.3058H450.834V0.542327H471.217V5.3058H463.888V27.5354Z" fill="#00E5C7"/>
<path d="M499.872 14.0019C499.872 16.0821 499.614 17.9776 499.097 19.6886C498.58 21.3872 497.792 22.8519 496.733 24.0828C495.687 25.3136 494.358 26.2614 492.745 26.9261C491.133 27.5784 489.225 27.9046 487.022 27.9046C484.819 27.9046 482.911 27.5784 481.298 26.9261C479.686 26.2614 478.35 25.3136 477.292 24.0828C476.246 22.8519 475.464 21.381 474.947 19.6701C474.43 17.9592 474.172 16.0575 474.172 13.965C474.172 11.1709 474.627 8.73994 475.538 6.67207C476.461 4.5919 477.876 2.97946 479.784 1.83474C481.692 0.690032 484.117 0.117676 487.059 0.117676C489.988 0.117676 492.395 0.690032 494.278 1.83474C496.173 2.97946 497.577 4.5919 498.487 6.67207C499.411 8.75225 499.872 11.1955 499.872 14.0019ZM480.172 14.0019C480.172 15.8852 480.406 17.5099 480.874 18.8762C481.354 20.2301 482.098 21.2764 483.108 22.0149C484.117 22.7411 485.422 23.1042 487.022 23.1042C488.647 23.1042 489.964 22.7411 490.973 22.0149C491.982 21.2764 492.715 20.2301 493.17 18.8762C493.638 17.5099 493.872 15.8852 493.872 14.0019C493.872 11.1709 493.342 8.94303 492.284 7.31828C491.225 5.69353 489.484 4.88115 487.059 4.88115C485.446 4.88115 484.129 5.25042 483.108 5.98894C482.098 6.71515 481.354 7.7614 480.874 9.12766C480.406 10.4816 480.172 12.1064 480.172 14.0019Z" fill="#00E5C7"/>
<path d="M520.92 27.5354H515.289V0.542327H530.761V5.23195H520.92V12.1925H530.078V16.8637H520.92V27.5354Z" fill="#00E5C7"/>
<path d="M551.587 27.5354H536.041V0.542327H551.587V5.23195H541.765V11.1586H550.904V15.8482H541.765V22.8088H551.587V27.5354Z" fill="#00E5C7"/>
<path d="M579.633 13.7804C579.633 16.8206 579.048 19.3624 577.879 21.4056C576.722 23.4366 575.042 24.969 572.838 26.0029C570.635 27.0246 567.982 27.5354 564.881 27.5354H557.237V0.542327H565.712C568.543 0.542327 570.998 1.04698 573.078 2.0563C575.158 3.05331 576.771 4.53651 577.916 6.50591C579.06 8.46299 579.633 10.8878 579.633 13.7804ZM573.688 13.9281C573.688 11.9341 573.392 10.297 572.801 9.01689C572.223 7.72447 571.361 6.77054 570.217 6.15511C569.084 5.53967 567.681 5.23195 566.007 5.23195H562.961V22.8088H565.416C568.21 22.8088 570.284 22.0641 571.638 20.5748C573.004 19.0854 573.688 16.8699 573.688 13.9281Z" fill="#00E5C7"/>
<path d="M600.773 27.5354H585.227V0.542327H600.773V5.23195H590.951V11.1586H600.09V15.8482H590.951V22.8088H600.773V27.5354Z" fill="#00E5C7"/>
<path d="M614.288 0.542327C616.737 0.542327 618.756 0.837736 620.344 1.42856C621.944 2.01937 623.132 2.91176 623.907 4.1057C624.683 5.29965 625.07 6.80747 625.07 8.62916C625.07 9.86003 624.836 10.937 624.369 11.8602C623.901 12.7834 623.286 13.565 622.522 14.205C621.759 14.8451 620.935 15.3682 620.048 15.7744L627.988 27.5354H621.636L615.193 17.1776H612.146V27.5354H606.423V0.542327H614.288ZM613.882 5.23195H612.146V12.5249H613.993C615.888 12.5249 617.242 12.211 618.054 11.5833C618.879 10.9432 619.291 10.0077 619.291 8.77687C619.291 7.49676 618.848 6.58591 617.962 6.04433C617.088 5.50274 615.728 5.23195 613.882 5.23195Z" fill="#00E5C7"/>
<path d="M647.909 27.5354L645.952 21.1102H636.111L634.154 27.5354H627.988L637.514 0.431548H644.512L654.076 27.5354H647.909ZM644.586 16.3098L642.629 10.0324C642.506 9.61386 642.34 9.07843 642.13 8.42607C641.933 7.7614 641.73 7.09057 641.521 6.41359C641.324 5.7243 641.164 5.12733 641.041 4.62267C640.918 5.12733 640.746 5.75507 640.524 6.50591C640.315 7.24443 640.112 7.94603 639.915 8.6107C639.718 9.27537 639.576 9.74926 639.49 10.0324L637.551 16.3098H644.586Z" fill="#00E5C7"/>
<path d="M657.492 27.5354V0.542327H663.215V22.8088H674.164V27.5354H657.492Z" fill="#00E5C7"/>
<path d="M310.54 47.3555C312.448 47.3555 314.022 47.594 315.262 48.0709C316.512 48.5373 317.445 49.2528 318.06 50.2173C318.675 51.1818 318.982 52.4113 318.982 53.9058C318.982 55.1353 318.759 56.1634 318.314 56.9902C317.869 57.8063 317.286 58.4687 316.565 58.9775C315.845 59.4863 315.076 59.8784 314.26 60.154L320.636 70.5995H317.488L311.796 60.9013H306.963V70.5995H304.26V47.3555H310.54ZM310.381 49.6926H306.963V58.6118H310.651C312.548 58.6118 313.942 58.225 314.832 57.4512C315.733 56.6775 316.184 55.5381 316.184 54.033C316.184 52.4537 315.707 51.3355 314.753 50.6783C313.81 50.0212 312.352 49.6926 310.381 49.6926Z" fill="#00E5C7"/>
<path d="M326.598 53.1744V70.5995H323.958V53.1744H326.598ZM325.31 46.656C325.744 46.656 326.115 46.799 326.423 47.0852C326.741 47.3608 326.9 47.7954 326.9 48.3889C326.9 48.9719 326.741 49.4064 326.423 49.6926C326.115 49.9788 325.744 50.1219 325.31 50.1219C324.854 50.1219 324.472 49.9788 324.165 49.6926C323.868 49.4064 323.72 48.9719 323.72 48.3889C323.72 47.7954 323.868 47.3608 324.165 47.0852C324.472 46.799 324.854 46.656 325.31 46.656Z" fill="#00E5C7"/>
<path d="M347.218 61.8552C347.218 63.2861 347.033 64.5633 346.662 65.6868C346.291 66.8103 345.756 67.7589 345.056 68.5327C344.356 69.3064 343.509 69.9 342.512 70.3133C341.526 70.7161 340.408 70.9175 339.158 70.9175C337.992 70.9175 336.921 70.7161 335.946 70.3133C334.981 69.9 334.144 69.3064 333.434 68.5327C332.734 67.7589 332.189 66.8103 331.796 65.6868C331.415 64.5633 331.224 63.2861 331.224 61.8552C331.224 59.9473 331.547 58.3257 332.194 56.9902C332.84 55.6441 333.763 54.6212 334.96 53.9217C336.169 53.2115 337.605 52.8565 339.269 52.8565C340.859 52.8565 342.247 53.2115 343.434 53.9217C344.632 54.6318 345.559 55.66 346.217 57.0061C346.884 58.3416 347.218 59.9579 347.218 61.8552ZM333.959 61.8552C333.959 63.2543 334.144 64.4679 334.515 65.496C334.886 66.5241 335.458 67.3191 336.232 67.8808C337.006 68.4426 338.002 68.7235 339.221 68.7235C340.429 68.7235 341.421 68.4426 342.194 67.8808C342.979 67.3191 343.556 66.5241 343.927 65.496C344.298 64.4679 344.484 63.2543 344.484 61.8552C344.484 60.4667 344.298 59.269 343.927 58.2621C343.556 57.2445 342.984 56.4602 342.21 55.909C341.436 55.3579 340.435 55.0823 339.205 55.0823C337.393 55.0823 336.063 55.6812 335.215 56.8789C334.377 58.0766 333.959 59.7353 333.959 61.8552Z" fill="#00E5C7"/>
<path d="M370.574 58.421H378.698V69.6933C377.479 70.1066 376.223 70.414 374.93 70.6154C373.647 70.8168 372.211 70.9175 370.621 70.9175C368.205 70.9175 366.164 70.4352 364.5 69.4707C362.847 68.5062 361.591 67.1336 360.732 65.3529C359.874 63.5616 359.444 61.4365 359.444 58.9775C359.444 56.5715 359.916 54.4728 360.859 52.6816C361.813 50.8903 363.186 49.5018 364.977 48.5161C366.779 47.5198 368.941 47.0216 371.464 47.0216C372.757 47.0216 373.981 47.1435 375.137 47.3873C376.302 47.6205 377.384 47.9544 378.38 48.3889L377.346 50.7419C376.488 50.371 375.539 50.053 374.501 49.788C373.472 49.523 372.407 49.3905 371.305 49.3905C369.408 49.3905 367.781 49.7827 366.424 50.5671C365.078 51.3514 364.044 52.459 363.324 53.8899C362.614 55.3208 362.258 57.0167 362.258 58.9775C362.258 60.9172 362.571 62.6077 363.197 64.0492C363.822 65.4801 364.797 66.593 366.122 67.388C367.447 68.1829 369.153 68.5804 371.241 68.5804C372.291 68.5804 373.192 68.5221 373.944 68.4055C374.697 68.2783 375.38 68.1299 375.995 67.9603V60.8377H370.574V58.421Z" fill="#00E5C7"/>
<path d="M391.846 52.8565C392.196 52.8565 392.562 52.8777 392.943 52.9201C393.325 52.9519 393.664 52.9996 393.961 53.0632L393.627 55.5116C393.341 55.4374 393.023 55.3791 392.673 55.3367C392.323 55.2943 391.995 55.2731 391.687 55.2731C390.988 55.2731 390.325 55.4162 389.7 55.7024C389.085 55.9779 388.544 56.3807 388.078 56.9107C387.612 57.43 387.246 58.0607 386.981 58.8026C386.716 59.534 386.584 60.3501 386.584 61.251V70.5995H383.929V53.1744H386.123L386.409 56.386H386.52C386.88 55.7395 387.315 55.1512 387.824 54.6212C388.332 54.0807 388.921 53.6514 389.588 53.3334C390.267 53.0155 391.019 52.8565 391.846 52.8565Z" fill="#00E5C7"/>
<path d="M403.77 52.8883C405.848 52.8883 407.39 53.3546 408.397 54.2874C409.404 55.2201 409.907 56.7093 409.907 58.7549V70.5995H407.983L407.475 68.0239H407.347C406.86 68.6599 406.351 69.1951 405.821 69.6297C405.291 70.0536 404.676 70.3769 403.977 70.5995C403.288 70.8115 402.44 70.9175 401.433 70.9175C400.373 70.9175 399.43 70.732 398.603 70.361C397.787 69.9901 397.14 69.4283 396.663 68.6758C396.197 67.9232 395.964 66.9693 395.964 65.814C395.964 64.0757 396.653 62.7402 398.031 61.8075C399.409 60.8748 401.507 60.366 404.327 60.2812L407.332 60.154V59.0888C407.332 57.5837 407.008 56.5291 406.362 55.9249C405.715 55.3208 404.804 55.0187 403.627 55.0187C402.716 55.0187 401.846 55.1512 401.02 55.4162C400.193 55.6812 399.409 55.9938 398.667 56.3542L397.856 54.351C398.64 53.9482 399.541 53.6037 400.559 53.3175C401.576 53.0314 402.647 52.8883 403.77 52.8883ZM407.3 62.0142L404.645 62.1255C402.472 62.2103 400.94 62.5653 400.05 63.1907C399.16 63.816 398.714 64.7011 398.714 65.8458C398.714 66.8421 399.016 67.5787 399.621 68.0557C400.225 68.5327 401.025 68.7711 402.021 68.7711C403.569 68.7711 404.835 68.3419 405.821 67.4833C406.807 66.6248 407.3 65.337 407.3 63.6199V62.0142Z" fill="#00E5C7"/>
<path d="M423.596 52.8565C425.663 52.8565 427.226 53.3652 428.286 54.3828C429.346 55.3897 429.876 57.0114 429.876 59.2478V70.5995H427.269V59.4227C427.269 57.9706 426.935 56.8842 426.267 56.1634C425.61 55.4427 424.598 55.0823 423.23 55.0823C421.301 55.0823 419.945 55.6282 419.16 56.7199C418.376 57.8116 417.984 59.3962 417.984 61.4736V70.5995H415.345V53.1744H417.475L417.872 55.6865H418.015C418.386 55.0717 418.858 54.5576 419.43 54.1443C420.003 53.7203 420.644 53.4023 421.354 53.1903C422.064 52.9678 422.812 52.8565 423.596 52.8565Z" fill="#00E5C7"/>
<path d="M441.514 70.9175C439.309 70.9175 437.56 70.1649 436.267 68.6599C434.985 67.1548 434.344 64.9183 434.344 61.9506C434.344 58.951 435.001 56.6881 436.315 55.1618C437.629 53.6249 439.378 52.8565 441.562 52.8565C442.484 52.8565 443.289 52.9784 443.978 53.2221C444.667 53.4659 445.261 53.7945 445.759 54.2079C446.257 54.6106 446.676 55.0717 447.015 55.5911H447.206C447.163 55.2625 447.121 54.812 447.078 54.2397C447.036 53.6673 447.015 53.2009 447.015 52.8406V45.861H449.654V70.5995H447.524L447.126 68.1193H447.015C446.686 68.6387 446.268 69.1103 445.759 69.5343C445.261 69.9583 444.662 70.2974 443.962 70.5518C443.273 70.7956 442.457 70.9175 441.514 70.9175ZM441.927 68.7235C443.793 68.7235 445.112 68.1935 445.886 67.1336C446.66 66.0737 447.047 64.4997 447.047 62.4116V61.9347C447.047 59.7194 446.676 58.0183 445.934 56.8312C445.202 55.6441 443.867 55.0505 441.927 55.0505C440.306 55.0505 439.092 55.6759 438.286 56.9266C437.481 58.1667 437.078 59.8625 437.078 62.0142C437.078 64.1552 437.476 65.8087 438.271 66.9746C439.076 68.1405 440.295 68.7235 441.927 68.7235Z" fill="#00E5C7"/>
<path d="M461.96 52.8565C463.444 52.8565 464.715 53.185 465.775 53.8422C466.835 54.4993 467.646 55.4215 468.208 56.6086C468.77 57.7851 469.051 59.163 469.051 60.7423V62.3798H457.015C457.047 64.4255 457.556 65.9836 458.541 67.0541C459.527 68.1246 460.916 68.6599 462.707 68.6599C463.809 68.6599 464.784 68.5592 465.632 68.3578C466.48 68.1564 467.36 67.8596 468.272 67.4674V69.7887C467.392 70.1808 466.517 70.467 465.648 70.6472C464.79 70.8274 463.772 70.9175 462.596 70.9175C460.921 70.9175 459.458 70.5783 458.208 69.9C456.967 69.211 456.003 68.2041 455.314 66.8792C454.625 65.5543 454.281 63.9326 454.281 62.0142C454.281 60.1381 454.593 58.5164 455.219 57.1491C455.855 55.7712 456.745 54.7113 457.89 53.9694C459.045 53.2274 460.402 52.8565 461.96 52.8565ZM461.928 55.0187C460.518 55.0187 459.395 55.4798 458.557 56.4019C457.72 57.324 457.222 58.6118 457.063 60.2653H466.284C466.274 59.2266 466.109 58.3151 465.791 57.5307C465.484 56.7358 465.012 56.121 464.376 55.6865C463.74 55.2413 462.924 55.0187 461.928 55.0187Z" fill="#00E5C7"/>
<path d="M488.193 70.9175C485.988 70.9175 484.239 70.1649 482.946 68.6599C481.664 67.1548 481.022 64.9183 481.022 61.9506C481.022 58.951 481.679 56.6881 482.994 55.1618C484.308 53.6249 486.057 52.8565 488.24 52.8565C489.163 52.8565 489.968 52.9784 490.657 53.2221C491.346 53.4659 491.939 53.7945 492.438 54.2079C492.936 54.6106 493.354 55.0717 493.694 55.5911H493.884C493.842 55.2625 493.8 54.812 493.757 54.2397C493.715 53.6673 493.694 53.2009 493.694 52.8406V45.861H496.333V70.5995H494.202L493.805 68.1193H493.694C493.365 68.6387 492.946 69.1103 492.438 69.5343C491.939 69.9583 491.341 70.2974 490.641 70.5518C489.952 70.7956 489.136 70.9175 488.193 70.9175ZM488.606 68.7235C490.472 68.7235 491.791 68.1935 492.565 67.1336C493.339 66.0737 493.725 64.4997 493.725 62.4116V61.9347C493.725 59.7194 493.354 58.0183 492.613 56.8312C491.881 55.6441 490.546 55.0505 488.606 55.0505C486.984 55.0505 485.771 55.6759 484.965 56.9266C484.16 58.1667 483.757 59.8625 483.757 62.0142C483.757 64.1552 484.154 65.8087 484.949 66.9746C485.755 68.1405 486.974 68.7235 488.606 68.7235Z" fill="#00E5C7"/>
<path d="M516.954 61.8552C516.954 63.2861 516.768 64.5633 516.397 65.6868C516.026 66.8103 515.491 67.7589 514.791 68.5327C514.092 69.3064 513.244 69.9 512.248 70.3133C511.262 70.7161 510.144 70.9175 508.893 70.9175C507.727 70.9175 506.656 70.7161 505.681 70.3133C504.717 69.9 503.879 69.3064 503.169 68.5327C502.47 67.7589 501.924 66.8103 501.532 65.6868C501.15 64.5633 500.959 63.2861 500.959 61.8552C500.959 59.9473 501.283 58.3257 501.929 56.9902C502.576 55.6441 503.498 54.6212 504.696 53.9217C505.904 53.2115 507.34 52.8565 509.004 52.8565C510.594 52.8565 511.983 53.2115 513.17 53.9217C514.367 54.6318 515.295 55.66 515.952 57.0061C516.62 58.3416 516.954 59.9579 516.954 61.8552ZM503.694 61.8552C503.694 63.2543 503.879 64.4679 504.25 65.496C504.621 66.5241 505.194 67.3191 505.968 67.8808C506.741 68.4426 507.738 68.7235 508.956 68.7235C510.165 68.7235 511.156 68.4426 511.93 67.8808C512.714 67.3191 513.292 66.5241 513.663 65.496C514.033 64.4679 514.219 63.2543 514.219 61.8552C514.219 60.4667 514.033 59.269 513.663 58.2621C513.292 57.2445 512.719 56.4602 511.945 55.909C511.172 55.3579 510.17 55.0823 508.941 55.0823C507.128 55.0823 505.798 55.6812 504.95 56.8789C504.113 58.0766 503.694 59.7353 503.694 61.8552Z" fill="#00E5C7"/>
<path d="M548.544 70.5995H545.428L532.757 51.0758H532.63C532.662 51.5952 532.699 52.1887 532.741 52.8565C532.783 53.5136 532.815 54.2185 532.836 54.971C532.868 55.713 532.884 56.4708 532.884 57.2445V70.5995H530.372V47.3555H533.472L546.096 66.8156H546.207C546.186 66.4446 546.16 65.92 546.128 65.2416C546.096 64.5527 546.064 63.816 546.032 63.0317C546.011 62.2368 546.001 61.5001 546.001 60.8218V47.3555H548.544V70.5995Z" fill="#00E5C7"/>
<path d="M569.515 61.8552C569.515 63.2861 569.329 64.5633 568.958 65.6868C568.587 66.8103 568.052 67.7589 567.353 68.5327C566.653 69.3064 565.805 69.9 564.809 70.3133C563.823 70.7161 562.705 70.9175 561.454 70.9175C560.288 70.9175 559.218 70.7161 558.243 70.3133C557.278 69.9 556.441 69.3064 555.731 68.5327C555.031 67.7589 554.485 66.8103 554.093 65.6868C553.712 64.5633 553.521 63.2861 553.521 61.8552C553.521 59.9473 553.844 58.3257 554.491 56.9902C555.137 55.6441 556.059 54.6212 557.257 53.9217C558.465 53.2115 559.901 52.8565 561.566 52.8565C563.155 52.8565 564.544 53.2115 565.731 53.9217C566.929 54.6318 567.856 55.66 568.513 57.0061C569.181 58.3416 569.515 59.9579 569.515 61.8552ZM556.255 61.8552C556.255 63.2543 556.441 64.4679 556.812 65.496C557.183 66.5241 557.755 67.3191 558.529 67.8808C559.303 68.4426 560.299 68.7235 561.518 68.7235C562.726 68.7235 563.717 68.4426 564.491 67.8808C565.275 67.3191 565.853 66.5241 566.224 65.496C566.595 64.4679 566.78 63.2543 566.78 61.8552C566.78 60.4667 566.595 59.269 566.224 58.2621C565.853 57.2445 565.281 56.4602 564.507 55.909C563.733 55.3579 562.731 55.0823 561.502 55.0823C559.689 55.0823 558.359 55.6812 557.511 56.8789C556.674 58.0766 556.255 59.7353 556.255 61.8552Z" fill="#00E5C7"/>
<path d="M581.995 52.8565C582.345 52.8565 582.711 52.8777 583.092 52.9201C583.474 52.9519 583.813 52.9996 584.11 53.0632L583.776 55.5116C583.49 55.4374 583.172 55.3791 582.822 55.3367C582.472 55.2943 582.144 55.2731 581.836 55.2731C581.137 55.2731 580.474 55.4162 579.849 55.7024C579.234 55.9779 578.694 56.3807 578.227 56.9107C577.761 57.43 577.395 58.0607 577.13 58.8026C576.865 59.534 576.733 60.3501 576.733 61.251V70.5995H574.078V53.1744H576.272L576.558 56.386H576.669C577.03 55.7395 577.464 55.1512 577.973 54.6212C578.482 54.0807 579.07 53.6514 579.738 53.3334C580.416 53.0155 581.169 52.8565 581.995 52.8565Z" fill="#00E5C7"/>
<path d="M593.029 68.7552C593.464 68.7552 593.909 68.7182 594.365 68.644C594.82 68.5698 595.191 68.4797 595.478 68.3737V70.4246C595.17 70.5624 594.741 70.679 594.19 70.7744C593.649 70.8698 593.119 70.9175 592.6 70.9175C591.678 70.9175 590.84 70.7585 590.088 70.4405C589.335 70.1119 588.731 69.5608 588.275 68.787C587.83 68.0133 587.608 66.9428 587.608 65.5755V55.2413H585.128V53.9535L587.624 52.9201L588.673 49.1362H590.263V53.1744H595.366V55.2413H590.263V65.496C590.263 66.5877 590.512 67.4039 591.01 67.9444C591.519 68.485 592.192 68.7552 593.029 68.7552Z" fill="#00E5C7"/>
<path d="M605.716 52.8565C607.2 52.8565 608.472 53.185 609.532 53.8422C610.592 54.4993 611.403 55.4215 611.965 56.6086C612.526 57.7851 612.807 59.163 612.807 60.7423V62.3798H600.772C600.804 64.4255 601.312 65.9836 602.298 67.0541C603.284 68.1246 604.672 68.6599 606.464 68.6599C607.566 68.6599 608.541 68.5592 609.389 68.3578C610.237 68.1564 611.117 67.8596 612.028 67.4674V69.7887C611.149 70.1808 610.274 70.467 609.405 70.6472C608.546 70.8274 607.529 70.9175 606.352 70.9175C604.678 70.9175 603.215 70.5783 601.964 69.9C600.724 69.211 599.76 68.2041 599.071 66.8792C598.382 65.5543 598.037 63.9326 598.037 62.0142C598.037 60.1381 598.35 58.5164 598.975 57.1491C599.611 55.7712 600.502 54.7113 601.646 53.9694C602.802 53.2274 604.158 52.8565 605.716 52.8565ZM605.685 55.0187C604.275 55.0187 603.151 55.4798 602.314 56.4019C601.477 57.324 600.979 58.6118 600.82 60.2653H610.041C610.03 59.2266 609.866 58.3151 609.548 57.5307C609.241 56.7358 608.769 56.121 608.133 55.6865C607.497 55.2413 606.681 55.0187 605.685 55.0187Z" fill="#00E5C7"/>
<path d="M193.994 13.1527H193.713L193.014 1.53979H181.961C182.38 7.97502 182.52 14.9713 182.52 23.6465V102.465H194.833V60.1647H195.113C199.17 66.881 206.866 70.7999 215.96 70.7999C231.771 70.7999 246.743 58.7668 246.743 34.4196C246.743 13.8528 234.431 -8.12052e-05 217.921 -8.12052e-05C207.006 -8.12052e-05 198.891 4.75739 193.994 13.1527ZM195.394 46.7326C194.973 45.1939 194.833 43.3741 194.833 41.6964V29.942C194.833 28.4045 195.253 26.5842 195.533 25.0461C197.911 15.672 205.887 9.7942 214.281 9.7942C227.295 9.7942 234.29 21.4077 234.29 34.98C234.29 50.5112 226.735 61.1459 213.722 61.1459C205.047 61.1459 197.492 55.2687 195.394 46.7326Z" fill="#00E5C7"/>
<path d="M122.568 5.87721L125.367 14.1322C130.123 10.9134 136.699 9.09482 143.136 9.09482C156.987 8.95516 158.528 19.169 158.528 24.7657V26.1659C132.362 26.0256 117.811 34.9802 117.811 51.3499C117.811 61.146 124.807 70.8 138.519 70.8C148.172 70.8 155.589 66.0414 159.226 60.7252H159.646L160.766 69.2602H171.819C171.12 64.6424 170.84 58.9066 170.84 53.0301V27.704C170.84 14.1322 165.802 3.28371e-05 144.955 3.28371e-05C136.42 3.28371e-05 128.165 2.37848 122.568 5.87721ZM130.123 49.9527C130.123 36.7988 145.375 34.4197 158.807 34.6997V46.454C158.807 47.7133 158.667 49.1117 158.246 50.3705C156.289 56.108 150.552 61.7041 141.597 61.7041C135.441 61.7041 130.123 58.0663 130.123 49.9527Z" fill="#00E5C7"/>
<path d="M96.2439 1.5399V42.9558C96.2439 45.3343 95.8237 47.5731 95.1242 49.2514C92.8867 54.8487 87.1491 60.585 78.8935 60.585C67.8399 60.585 63.7831 51.7701 63.7831 38.8967V1.5399H51.4707V41.1361C51.4707 64.7826 64.2027 70.8 74.8362 70.8C86.8692 70.8 94.1454 63.6623 97.2233 58.2065H97.5033L98.2022 69.2602H109.116C108.697 63.9434 108.556 57.7876 108.556 50.651V1.5399H96.2439Z" fill="#00E5C7"/>
<path d="M1.8192 19.8685C1.8192 27.8436 7.55551 34.56 19.8685 39.037C28.8236 42.3948 32.3211 45.4752 32.3211 51.3499C32.3211 57.0874 28.1241 61.4242 19.3092 61.4242C13.1522 61.4242 6.71633 58.9066 2.93887 56.6685L0 65.9017C4.75748 68.7003 11.6129 70.6592 19.0293 70.6592C34.8405 70.6592 44.2146 62.2651 44.2146 50.2308C44.2146 40.1566 38.0581 34.2812 26.4452 29.9422C17.6297 26.4452 13.7126 23.9265 13.7126 18.3299C13.7126 13.2919 17.6297 9.09482 24.9059 9.09482C31.2021 9.09482 36.0998 11.4733 38.7576 13.0137L41.6964 4.19768C38.0581 1.81984 32.0418 3.02137e-05 25.1852 3.02137e-05C10.7743 3.02137e-05 1.8192 8.95515 1.8192 19.8685Z" fill="#00E5C7"/>
</svg>
